<?xml version="1.0" encoding="utf-8"?>
<!-- Generator: Adobe Illustrator 25.0.0, SVG Export Plug-In . SVG Version: 6.00 Build 0)  -->
<svg version="1.1" id="Layer_1" xmlns="http://www.w3.org/2000/svg" xmlns:xlink="http://www.w3.org/1999/xlink" x="0px" y="0px"
	 viewBox="0 0 327.6 157" style="enable-background:new 0 0 327.6 157;" xml:space="preserve">
<style type="text/css">
	.st0{fill:#6DC28E;}
	.st1{fill:#394B6E;}
	.st2{fill:#242E64;}
	.st3{fill:#FFFFFF;}
	.st4{clip-path:url(#SVGID_2_);fill:#242E64;}
	.st5{clip-path:url(#SVGID_4_);fill:#242E64;}
</style>
<g>
	<path class="st0" d="M38.5,74.2V88h-2.6v-6.3l-4.3,6.2h0l-4.2-5.8V88h-2.5V74.2h0l6.7,9.6L38.5,74.2L38.5,74.2z"/>
	<path class="st0" d="M51.7,74.7v2.5h-6.4v2.8H51v2.5h-5.7v2.9H52V88h-9.3V74.7H51.7z"/>
	<path class="st0" d="M58,74.7V88h-2.6V74.7H58z"/>
	<path class="st0" d="M71.9,87.4c-0.6,0.2-1.1,0.4-1.7,0.6c-0.6,0.1-1.1,0.2-1.7,0.2c-1.3,0-2.6-0.3-3.7-0.8c-1-0.5-1.9-1.3-2.5-2.3
		c-0.6-1-0.9-2.2-0.9-3.3c0-1.4,0.3-2.7,0.9-3.9c0.6-1,1.4-1.9,2.5-2.4c1.1-0.5,2.2-0.8,3.4-0.8c0.8,0,1.5,0.1,2.3,0.3
		c0.7,0.2,1.3,0.4,1.9,0.7L71.5,78c-0.5-0.2-0.9-0.4-1.4-0.5c-0.5-0.1-1-0.2-1.5-0.2c-1.2-0.1-2.4,0.3-3.3,1.1
		c-0.8,0.9-1.2,2-1.1,3.2c0,0.8,0.2,1.5,0.6,2.1c0.4,0.6,0.9,1.1,1.6,1.4c0.7,0.3,1.5,0.5,2.3,0.5c0.6,0,1.3-0.1,1.8-0.3v-1.6H68
		v-2.5H73v5.6C72.6,87,72.3,87.2,71.9,87.4z"/>
	<path class="st0" d="M87.8,88h-2.6v-5.4h-5.9V88h-2.6V74.7h2.6v5.4h5.9v-5.4h2.6L87.8,88z"/>
	<path class="st0" d="M98.5,85.4h-4.4L93.1,88h-2.6l6-13.8h0.1l6,13.8h-3L98.5,85.4z M97.7,83.2L96.4,80l-1.3,3.2L97.7,83.2z"/>
	<path class="st0" d="M117.2,74.7v13.8h-0.1l-9.3-8.4l0.1,7.9h-2.7V74.2h0.1l9.3,8.5l-0.1-8L117.2,74.7z"/>
	<path class="st0" d="M33.2,109.4c-0.8,0.3-1.6,0.4-2.4,0.4c-1.3,0-2.5-0.3-3.6-0.9c-1-0.6-1.8-1.4-2.3-2.4c-0.5-1-0.8-2.2-0.8-3.3
		c0-1.2,0.3-2.5,0.8-3.6c0.5-1,1.3-1.9,2.3-2.4c1-0.6,2.2-0.9,3.4-0.9c0.8,0,1.5,0.1,2.2,0.3c0.6,0.2,1.2,0.5,1.8,0.8l-1,2.5
		c-0.8-0.7-1.9-1.1-2.9-1.1c-0.7,0-1.3,0.2-1.9,0.6c-0.6,0.4-1.1,0.9-1.4,1.5c-0.4,0.7-0.5,1.4-0.5,2.1c0,0.8,0.2,1.5,0.5,2.2
		c0.3,0.6,0.8,1.1,1.4,1.5c0.6,0.4,1.4,0.6,2.1,0.5c0.6,0,1.2-0.1,1.8-0.3c0.5-0.2,0.9-0.4,1.2-0.7l1.1,2.3
		C34.3,108.9,33.8,109.2,33.2,109.4z"/>
	<path class="st0" d="M44.7,107.1h-4.4l-1.1,2.6h-2.6l6-13.8h0.1l6,13.8h-3L44.7,107.1z M43.8,104.9l-1.3-3.2l-1.3,3.2H43.8z"/>
	<path class="st0" d="M58.6,109.7l-2.8-4.2H54v4.2h-2.6V96.4h4c1.4-0.1,2.7,0.3,3.8,1.2c0.9,0.8,1.4,2,1.4,3.3
		c0,0.8-0.2,1.6-0.5,2.3c-0.3,0.7-0.9,1.3-1.6,1.7l3.1,4.8L58.6,109.7z M54,102.9h1.9c0.6,0.1,1.2-0.2,1.6-0.6
		c0.3-0.4,0.5-0.9,0.5-1.3c0-0.5-0.1-1-0.4-1.4c-0.4-0.5-1-0.7-1.6-0.7H54V102.9z"/>
	<path class="st0" d="M78.2,95.9v13.8h-2.6v-6.3l-4.3,6.2h0l-4.2-5.8v5.9h-2.5V95.9h0l6.7,9.6L78.2,95.9L78.2,95.9z"/>
	<path class="st0" d="M85,96.4v13.3h-2.6V96.4H85z"/>
	<path class="st0" d="M97.5,109.4c-0.8,0.3-1.6,0.4-2.4,0.4c-1.3,0-2.5-0.3-3.6-0.9c-1-0.6-1.8-1.4-2.3-2.4c-0.5-1-0.8-2.2-0.8-3.3
		c0-1.2,0.3-2.5,0.8-3.6c0.5-1,1.3-1.9,2.3-2.4c1-0.6,2.2-0.9,3.4-0.9c0.8,0,1.5,0.1,2.2,0.3c0.6,0.2,1.2,0.5,1.8,0.8l-1,2.5
		c-0.8-0.7-1.9-1.1-2.9-1.1c-0.7,0-1.3,0.2-1.9,0.6c-0.6,0.4-1.1,0.9-1.4,1.5c-0.4,0.7-0.5,1.4-0.5,2.1c0,0.8,0.2,1.5,0.5,2.2
		c0.3,0.6,0.8,1.2,1.4,1.5c0.6,0.4,1.4,0.6,2.1,0.5c0.6,0,1.2-0.1,1.8-0.3c0.5-0.2,0.9-0.4,1.2-0.7l1.1,2.3
		C98.6,108.9,98.1,109.2,97.5,109.4z"/>
	<path class="st0" d="M113.6,109.7H111v-5.4h-5.9v5.4h-2.6V96.4h2.6v5.4h5.9v-5.4h2.6L113.6,109.7z"/>
	<path class="st0" d="M124.3,107.1h-4.4l-1.1,2.6h-2.6l6-13.8h0.1l6,13.8h-3L124.3,107.1z M123.5,104.9l-1.3-3.2l-1.3,3.2H123.5z"/>
	<path class="st0" d="M140.1,96.4v2.5h-6.4v2.8h5.7v2.5h-5.7v2.9h6.7v2.5H131V96.4H140.1z"/>
	<path class="st0" d="M146.4,96.4v10.8h6.2v2.5h-8.9V96.4H146.4z"/>
</g>
<path class="st1" d="M118.7,62.2c-2.3-1.3-4.2-4.3-5.6-7.1c-2.3-4.9-12.9-29.7-12.9-29.7H77.8L71.5,40l0,0l-6.8-14.7H43.4L24,65.3
	h2.8l18-36.4l17.4,36.4h1.6l14.9-34.4L90.8,55c1.7,4.1,5.3,8.1,9.5,9.5c4.6,1.3,21.3,1,25.6,1v-1.4C123.4,63.9,121,63.3,118.7,62.2z
	 M58,28.4h4.6v16.7L58,35.5L58,28.4z"/>
<g>
	<path class="st1" d="M26.9,119c0.6,0,1.3,0.1,1.8,0.5c0.5,0.4,0.7,1,0.6,1.6c0,0.3-0.1,0.6-0.2,0.9c-0.1,0.3-0.3,0.5-0.5,0.8
		c-0.3,0.2-0.6,0.4-0.9,0.4v-0.1c0.3,0,0.7,0.2,1,0.3c0.3,0.2,0.6,0.4,0.7,0.7c0.2,0.3,0.3,0.7,0.3,1c0,0.3-0.1,0.7-0.2,0.9
		c-0.1,0.3-0.3,0.5-0.6,0.7c-0.2,0.2-0.5,0.3-0.8,0.4c-0.3,0.1-0.6,0.1-1,0.1h-2V119L26.9,119z M27.2,123.1c0.5,0.1,1.1-0.1,1.5-0.5
		c0.3-0.4,0.5-0.9,0.4-1.4c0.1-0.6-0.2-1.1-0.6-1.5c-0.5-0.3-1-0.5-1.6-0.4h-1.4v3.9H27.2z M27.2,127.2c0.4,0,0.8-0.1,1.2-0.2
		c0.3-0.1,0.6-0.4,0.9-0.6c0.4-0.7,0.4-1.5,0-2.2c-0.2-0.3-0.5-0.5-0.9-0.6c-0.3-0.1-0.7-0.2-1.1-0.2h-1.7v3.9L27.2,127.2z"/>
	<path class="st1" d="M33.8,119c0.3,0,0.5,0,0.8,0.1c0.3,0.1,0.6,0.2,0.8,0.4c0.3,0.2,0.5,0.4,0.6,0.7c0.2,0.3,0.3,0.7,0.2,1.1
		c0,0.3,0,0.6-0.1,0.9c-0.2,0.6-0.7,1.1-1.2,1.3c-0.4,0.1-0.8,0.2-1.2,0.2h-1.3v3.8h-0.2V119L33.8,119z M33.6,123.4
		c0.4,0,0.8-0.1,1.2-0.2c0.3-0.1,0.5-0.3,0.7-0.5c0.2-0.2,0.3-0.4,0.4-0.7c0.1-0.2,0.1-0.5,0.1-0.8c0-0.3-0.1-0.6-0.2-0.8
		c-0.1-0.2-0.3-0.5-0.5-0.6c-0.2-0.2-0.4-0.3-0.7-0.4c-0.3-0.1-0.6-0.1-0.9-0.1h-1.5v4.2L33.6,123.4z M34.7,123.4l2.4,4h-0.3l-2.4-4
		H34.7z"/>
	<path class="st1" d="M38.5,123.3c0-0.6,0.1-1.1,0.3-1.7c0.2-0.5,0.5-1,0.9-1.4c0.4-0.4,0.9-0.7,1.4-0.9c1.1-0.4,2.3-0.4,3.3,0
		c1,0.4,1.9,1.3,2.3,2.3c0.5,1.1,0.5,2.3,0,3.3c-0.4,1-1.3,1.9-2.3,2.3c-0.5,0.2-1.1,0.3-1.7,0.3c-0.6,0-1.1-0.1-1.7-0.3
		c-1-0.4-1.9-1.2-2.3-2.3C38.6,124.4,38.5,123.8,38.5,123.3z M38.7,123.3c0,0.5,0.1,1.1,0.3,1.6c0.2,0.5,0.5,0.9,0.9,1.3
		c0.4,0.4,0.8,0.7,1.3,0.9c0.5,0.2,1,0.3,1.6,0.3c1.1,0,2.1-0.4,2.9-1.2c0.4-0.4,0.7-0.8,0.9-1.3c0.4-1,0.4-2.2,0-3.2
		c-0.2-0.5-0.5-0.9-0.9-1.3c-0.4-0.4-0.8-0.7-1.3-0.9c-1-0.4-2.2-0.4-3.2,0c-0.5,0.2-0.9,0.5-1.3,0.9c-0.4,0.4-0.7,0.8-0.9,1.3
		C38.8,122.2,38.7,122.7,38.7,123.3L38.7,123.3z"/>
	<path class="st1" d="M49.6,123.1l0,0.4l0,0l4.6-4.4h0.3l-3.5,3.3l4,5.1h-0.3l-3.9-4.9l-1.2,1.2l0,3.8h-0.2V119h0.2L49.6,123.1z"/>
	<path class="st1" d="M57.1,119h5v0.2h-4.8v3.8h4.3v0.2h-4.3v3.9h5v0.2h-5.2V119z"/>
	<path class="st1" d="M66.4,119c0.3,0,0.5,0,0.8,0.1c0.3,0.1,0.6,0.2,0.8,0.4c0.3,0.2,0.5,0.4,0.6,0.7c0.2,0.3,0.3,0.7,0.2,1.1
		c0,0.3,0,0.6-0.1,0.9c-0.1,0.3-0.2,0.5-0.5,0.8c-0.2,0.2-0.5,0.4-0.8,0.5c-0.4,0.1-0.8,0.2-1.2,0.2h-1.3v3.8h-0.2V119L66.4,119z
		 M66.2,123.4c0.4,0,0.8-0.1,1.2-0.2c0.3-0.1,0.5-0.3,0.7-0.5c0.2-0.2,0.3-0.4,0.4-0.7c0.1-0.2,0.1-0.5,0.1-0.8
		c0-0.3-0.1-0.6-0.2-0.8c-0.1-0.2-0.3-0.5-0.5-0.6c-0.2-0.2-0.4-0.3-0.7-0.4c-0.3-0.1-0.6-0.1-0.9-0.1h-1.5v4.2L66.2,123.4z
		 M67.3,123.4l2.4,4h-0.3l-2.4-4H67.3z"/>
	<path class="st1" d="M72.2,126.4c-0.2,0.4-0.3,0.8-0.5,1.2c-0.2,0.4-0.3,0.8-0.5,1.2H71c0.2-0.4,0.3-0.8,0.5-1.2s0.3-0.8,0.5-1.2
		L72.2,126.4z"/>
	<path class="st1" d="M79.6,119c0.3,0,0.5,0,0.8,0.1c0.3,0.1,0.6,0.2,0.8,0.4c0.3,0.2,0.5,0.4,0.6,0.7c0.2,0.3,0.3,0.7,0.2,1.1
		c0,0.3,0,0.6-0.1,0.9c-0.2,0.6-0.7,1.1-1.2,1.3c-0.4,0.1-0.8,0.2-1.2,0.2h-1.3v3.8h-0.2V119L79.6,119z M79.4,123.4
		c0.4,0,0.8-0.1,1.2-0.2c0.3-0.1,0.5-0.3,0.7-0.5c0.2-0.2,0.3-0.4,0.4-0.7c0.1-0.2,0.1-0.5,0.1-0.8c0-0.3-0.1-0.6-0.2-0.8
		c-0.1-0.2-0.3-0.5-0.5-0.6c-0.2-0.2-0.4-0.3-0.7-0.4c-0.3-0.1-0.6-0.1-0.9-0.1h-1.5v4.2L79.4,123.4z M80.5,123.4l2.4,4h-0.3l-2.4-4
		H80.5z"/>
	<path class="st1" d="M85.3,119h5v0.2h-4.8v3.8h4.3v0.2h-4.3v3.9h5v0.2h-5.2V119z"/>
	<path class="st1" d="M92.2,127.5l3.5-8.8h0l3.5,8.8h-0.3l-3.3-8.4l0.2,0l-3.3,8.4L92.2,127.5z M93.6,124.1h4.1l0,0.2h-4.2
		L93.6,124.1z"/>
	<path class="st1" d="M101.4,119h0.2v8.2h4.8v0.2h-5.1L101.4,119z"/>
	<path class="st1" d="M106.6,119h5.5v0.2h-2.6v8.2h-0.2v-8.2h-2.6L106.6,119z"/>
	<path class="st1" d="M113.2,123.3c0-0.6,0.1-1.1,0.3-1.7c0.2-0.5,0.5-1,0.9-1.4c0.4-0.4,0.9-0.7,1.4-0.9c1.1-0.4,2.3-0.4,3.3,0
		c1,0.4,1.9,1.3,2.3,2.3c0.5,1.1,0.5,2.3,0,3.3c-0.4,1-1.3,1.9-2.3,2.3c-0.5,0.2-1.1,0.3-1.7,0.3c-0.6,0-1.1-0.1-1.7-0.3
		c-1-0.4-1.9-1.2-2.3-2.3C113.3,124.4,113.2,123.8,113.2,123.3z M113.4,123.3c0,0.5,0.1,1.1,0.3,1.6c0.2,0.5,0.5,0.9,0.9,1.3
		c0.4,0.4,0.8,0.7,1.3,0.9c0.5,0.2,1,0.3,1.6,0.3c1.1,0,2.1-0.4,2.9-1.2c0.4-0.4,0.7-0.8,0.9-1.3c0.4-1,0.4-2.2,0-3.2
		c-0.2-0.5-0.5-0.9-0.9-1.3c-0.4-0.4-0.8-0.7-1.3-0.9c-1-0.4-2.2-0.4-3.2,0c-0.5,0.2-0.9,0.5-1.3,0.9c-0.4,0.4-0.7,0.8-0.9,1.3
		C113.5,122.2,113.4,122.7,113.4,123.3L113.4,123.3z"/>
	<path class="st1" d="M125.8,119c0.3,0,0.5,0,0.8,0.1c0.3,0.1,0.6,0.2,0.8,0.4c0.3,0.2,0.5,0.4,0.6,0.7c0.2,0.3,0.3,0.7,0.2,1.1
		c0,0.3,0,0.6-0.1,0.9c-0.2,0.6-0.7,1.1-1.2,1.3c-0.4,0.1-0.8,0.2-1.2,0.2h-1.3v3.8h-0.2V119L125.8,119z M125.6,123.4
		c0.4,0,0.8-0.1,1.2-0.2c0.3-0.1,0.5-0.3,0.7-0.5c0.2-0.2,0.3-0.4,0.4-0.7c0.1-0.2,0.1-0.5,0.1-0.8c0-0.3-0.1-0.6-0.2-0.8
		c-0.1-0.2-0.3-0.5-0.5-0.6c-0.2-0.2-0.4-0.3-0.7-0.4c-0.3-0.1-0.6-0.1-0.9-0.1h-1.5v4.2L125.6,123.4z M126.7,123.4l2.4,4h-0.3
		l-2.4-4H126.7z"/>
	<path class="st1" d="M130,119.1h1.8v0.2H131v2.9h-0.2v-2.9H130L130,119.1z M135.1,119.3l0.1,0l-1.4,1.9l-1.4-1.9l0.1,0v2.8h-0.2
		v-3.2l1.5,2h-0.1l1.5-2v3.2h-0.2L135.1,119.3z"/>
</g>
<g>
	<polygon class="st2" points="281.7,74.5 221.5,74.5 221.5,14.4 281.7,14.4 281.7,74.5 	"/>
	<path class="st3" d="M224.7,71.3h53.8V17.6h-53.8V71.3L224.7,71.3z M279.1,71.9h-55V17h55V71.9L279.1,71.9z"/>
	<polygon class="st3" points="259,34.8 263.2,32 267.4,34.8 266,29.9 270,26.8 264.9,26.6 263.2,21.8 261.4,26.6 256.4,26.8 
		260.3,29.9 259,34.8 	"/>
	<path class="st3" d="M266.5,52.9c-0.7-1-1.6-1.7-2.7-2.2c0.8-0.6,1.4-1.2,1.9-2.1c0.7-1.2,1.1-2.6,1.1-4c0-0.9-0.2-1.8-0.5-2.7
		c-0.3-0.9-0.8-1.7-1.3-2.4c-0.6-0.7-1.3-1.3-2.1-1.7c-0.8-0.4-1.8-0.7-2.8-0.7h-13.9v12.6c-1.4,0.1-2.7-0.2-3.8-0.8
		c-0.6-0.3-1.1-0.7-1.6-1.1c-0.4-0.3-0.8-0.7-1.1-1.1c-0.8-0.9-1.4-2-1.8-3.2c-0.4-1.2-0.7-2.5-0.7-3.8c0-1.2,0.2-2.4,0.6-3.5
		c0.4-1.2,0.9-2.2,1.6-3.1c0.7-0.9,1.6-1.7,2.7-2.2c1.5-0.8,3.5-1.1,5.6-0.6c0.6,0.1,1.3,0.4,1.9,0.7c0.6,0.3,1.2,0.7,1.7,1.3
		c0.5,0.5,1,1.2,1.3,2l0.3,0.7l3.7-2.4l-0.2-0.5c-0.9-1.8-2.2-3.3-4-4.5c-1.8-1.1-4-1.7-6.5-1.7c-2.1,0-4,0.4-5.7,1.2
		c-1.6,0.8-3.1,1.9-4.2,3.2c-1.1,1.3-2,2.8-2.6,4.5c-0.6,1.7-0.9,3.3-0.9,5c0,1.8,0.3,3.5,1,5.2c0.6,1.7,1.5,3.2,2.7,4.6
		c1.2,1.3,2.6,2.4,4.1,3.3c0.1,0.1,0.3,0.1,0.4,0.2c0.1,0,0.2,0.1,0.3,0.1c0.3,0.1,0.6,0.2,0.9,0.3c0.2,0.1,0.4,0.1,0.6,0.2
		c0.3,0.1,0.6,0.2,0.9,0.2c0.2,0,0.4,0.1,0.6,0.1c0.5,0.1,1.1,0.1,1.6,0.1c0.2,0,0.4,0,0.6,0c0.9,0,1.8-0.2,2.7-0.4
		c1.1-0.3,2.2-0.7,3.2-1.3c0.4-0.2,0.7-0.4,1.1-0.7c0.2-0.2,0.5-0.3,0.7-0.5c0.3-0.3,0.7-0.6,1-0.9c0.2-0.2,0.4-0.4,0.6-0.6
		c0.2-0.2,0.4-0.5,0.5-0.7c0.3-0.5,0.6-1,0.8-1.5L257,47l-0.4-0.4l0,0l-2.9-2.6c0,0-0.3,0.7-0.5,1c-0.2,0.3-0.5,0.9-0.7,1.2
		c-0.3,0.4-0.6,0.8-1,1.2c-0.2,0.2-0.4,0.4-0.7,0.6v-6.6h8.1c0.5,0,0.9,0.1,1.3,0.3c0.4,0.2,0.7,0.4,1,0.8c0.3,0.3,0.5,0.8,0.7,1.2
		c0.2,0.5,0.3,1,0.3,1.5c0,0.5-0.1,1-0.3,1.5c-0.2,0.5-0.4,0.9-0.7,1.2c-0.3,0.3-0.7,0.6-1.1,0.8c-0.4,0.2-0.9,0.3-1.4,0.3h-1.2
		c-0.1,0.2-0.3,0.5-0.4,0.7c-0.4,0.5-0.8,1.1-1.3,1.5c-0.6,0.6-1.3,1.2-2,1.6c-0.1,0.1-0.1,0.1,0,0.1h0.4h5.6c0.5,0,1,0.1,1.4,0.3
		c0.4,0.2,0.8,0.5,1.1,0.9c0.3,0.4,0.6,0.8,0.8,1.3c0.2,0.5,0.3,1,0.3,1.5c0,0.5-0.1,1-0.3,1.5c-0.2,0.5-0.5,0.9-0.8,1.2
		c-0.3,0.4-0.8,0.6-1.2,0.9c-0.4,0.2-0.9,0.3-1.5,0.3h-8.6v-6.5c-0.5,0.2-1.1,0.4-1.6,0.5c-0.9,0.2-1.9,0.4-3,0.4c0,0,0,0-0.1,0v9.8
		h13.3c1.1,0,2.2-0.2,3.2-0.5c1-0.3,1.9-0.9,2.7-1.5c0.8-0.7,1.4-1.5,1.9-2.4c0.5-0.9,0.7-2,0.7-3.1
		C267.9,55.8,267.4,54.2,266.5,52.9"/>
	<path class="st3" d="M224.7,71.4h53.8V17.6h-53.8V71.4L224.7,71.4z M279.1,72h-55V17h55V72L279.1,72z"/>
	<polygon class="st3" points="259,34.8 263.2,32 267.4,34.8 266,30 270,26.8 264.9,26.6 263.2,21.8 261.4,26.6 256.4,26.8 260.3,30 
		259,34.8 	"/>
	<path class="st3" d="M266.5,52.9c-0.7-1-1.6-1.7-2.7-2.2c0.8-0.6,1.4-1.2,1.9-2.1c0.7-1.2,1.1-2.6,1.1-4c0-0.9-0.2-1.8-0.5-2.7
		c-0.3-0.9-0.8-1.7-1.3-2.4c-0.6-0.7-1.3-1.3-2.1-1.7c-0.8-0.4-1.8-0.7-2.8-0.7h-13.9v12.6c-1.4,0.1-2.7-0.2-3.8-0.8
		c-0.6-0.3-1.1-0.7-1.6-1.1c-0.4-0.3-0.8-0.7-1.1-1.1c-0.8-0.9-1.4-2-1.8-3.2c-0.4-1.2-0.7-2.5-0.7-3.8c0-1.2,0.2-2.4,0.6-3.5
		c0.4-1.2,0.9-2.2,1.6-3.1c0.7-0.9,1.6-1.7,2.7-2.2c1.5-0.8,3.5-1.1,5.6-0.6c0.6,0.1,1.3,0.4,1.9,0.7c0.6,0.3,1.2,0.8,1.7,1.3
		c0.5,0.5,1,1.2,1.3,2l0.3,0.7l3.7-2.4l-0.2-0.5c-0.9-1.8-2.2-3.3-4-4.5c-1.8-1.1-4-1.7-6.5-1.7c-2.1,0-4,0.4-5.7,1.2
		c-1.6,0.8-3.1,1.9-4.2,3.2c-1.1,1.3-2,2.8-2.6,4.5c-0.6,1.7-0.9,3.3-0.9,5c0,1.8,0.3,3.5,1,5.2c0.6,1.7,1.5,3.2,2.7,4.6
		c1.2,1.3,2.6,2.4,4.1,3.3c0.1,0.1,0.3,0.1,0.4,0.2c0.1,0,0.2,0.1,0.3,0.1c0.3,0.1,0.6,0.2,0.9,0.3c0.2,0.1,0.4,0.1,0.6,0.2
		c0.3,0.1,0.6,0.2,0.9,0.2c0.2,0,0.4,0.1,0.6,0.1c0.5,0.1,1.1,0.1,1.6,0.1c0.2,0,0.4,0,0.6,0c0.9,0,1.8-0.2,2.7-0.4
		c1.1-0.3,2.2-0.7,3.2-1.3c0.4-0.2,0.7-0.4,1.1-0.7c0.2-0.2,0.5-0.3,0.7-0.5c0.3-0.3,0.7-0.6,1-0.9c0.2-0.2,0.4-0.4,0.6-0.6
		c0.2-0.2,0.4-0.5,0.5-0.7c0.3-0.5,0.6-1,0.8-1.5L257,47l-0.4-0.4l0,0l-2.9-2.6c0,0-0.3,0.7-0.5,1c-0.2,0.3-0.5,0.9-0.7,1.2
		c-0.3,0.4-0.6,0.8-1,1.2c-0.2,0.2-0.4,0.4-0.7,0.6v-6.6h8.1c0.5,0,0.9,0.1,1.3,0.3c0.4,0.2,0.7,0.4,1,0.8c0.3,0.3,0.5,0.8,0.7,1.2
		c0.2,0.5,0.3,1,0.3,1.6c0,0.5-0.1,1-0.3,1.5c-0.2,0.5-0.4,0.9-0.7,1.2c-0.3,0.3-0.7,0.6-1.1,0.8c-0.4,0.2-0.9,0.3-1.4,0.3h-1.2
		c-0.1,0.2-0.3,0.5-0.4,0.7c-0.4,0.5-0.8,1.1-1.3,1.5c-0.6,0.6-1.3,1.2-2,1.6c-0.1,0.1-0.1,0.1,0,0.1h0.4h5.6c0.5,0,1,0.1,1.4,0.3
		c0.4,0.2,0.8,0.5,1.1,0.9c0.3,0.4,0.6,0.8,0.8,1.3c0.2,0.5,0.3,1,0.3,1.5c0,0.5-0.1,1-0.3,1.5c-0.2,0.5-0.5,0.9-0.8,1.2
		c-0.3,0.4-0.8,0.6-1.2,0.9c-0.4,0.2-0.9,0.3-1.5,0.3h-8.6v-6.5c-0.5,0.2-1.1,0.4-1.6,0.5c-0.9,0.2-1.9,0.4-3,0.4c0,0,0,0-0.1,0v9.8
		h13.3c1.1,0,2.2-0.2,3.2-0.5c1-0.3,1.9-0.9,2.7-1.5c0.8-0.7,1.4-1.5,1.9-2.4c0.5-0.9,0.7-2,0.7-3.1
		C267.9,55.8,267.4,54.2,266.5,52.9"/>
	<polygon class="st2" points="281.7,118.4 221.5,118.4 221.5,117.8 281.7,117.8 281.7,118.4 	"/>
	<polygon class="st2" points="232.3,82.4 229.6,82.4 229.6,95.4 239,95.4 239,93 232.3,93 232.3,82.4 	"/>
	<polygon class="st2" points="263.9,89.2 260.8,82.4 260.4,82.4 257.3,89.2 254.9,82.4 252,82.4 256.8,95.4 256.8,95.4 257.2,95.4 
		260.6,88.2 264,95.4 264.4,95.4 269.2,82.4 266.3,82.4 263.9,89.2 	"/>
	<polygon class="st2" points="270.4,95.4 280,95.4 280,93 273.1,93 273.1,90.2 279.3,90.2 279.3,87.8 273.1,87.8 273.1,84.8 
		280,84.8 280,82.4 270.4,82.4 270.4,95.4 	"/>
	<polygon class="st2" points="284.9,82.4 282.2,82.4 282.2,95.4 291.7,95.4 291.7,93 284.9,93 284.9,82.4 	"/>
	<polygon class="st2" points="295.6,82.4 292.9,82.4 292.9,95.4 302.3,95.4 302.3,93 295.6,93 295.6,82.4 	"/>
	<path class="st2" d="M221.2,103.2c0,0.2,0,0.3-0.1,0.5c-0.1,0.2-0.1,0.3-0.3,0.5c-0.1,0.1-0.2,0.2-0.4,0.3
		c-0.2,0.1-0.4,0.1-0.6,0.1H217v-2.8h3c0.2,0,0.3,0,0.4,0.1c0.1,0.1,0.3,0.2,0.4,0.3c0.1,0.1,0.2,0.3,0.3,0.4
		C221.2,102.8,221.2,103,221.2,103.2 M221.7,108.4c0,0.2,0,0.4-0.1,0.6c-0.1,0.2-0.2,0.4-0.3,0.5c-0.1,0.2-0.3,0.3-0.4,0.4
		c-0.2,0.1-0.3,0.1-0.5,0.1H217v-3h3.1c0.5,0,0.9,0.1,1.2,0.4C221.6,107.7,221.7,108,221.7,108.4 M223.5,106.4
		c-0.3-0.3-0.5-0.5-0.9-0.7c-0.1-0.1-0.2-0.1-0.4-0.2c0.1,0,0.2-0.1,0.3-0.2c0.3-0.2,0.5-0.4,0.7-0.7c0.2-0.3,0.3-0.5,0.4-0.8
		c0.1-0.3,0.2-0.6,0.2-0.9c0-0.7-0.1-1.3-0.3-1.8c-0.2-0.5-0.5-0.9-0.8-1.1c-0.4-0.3-0.8-0.5-1.2-0.6c-0.5-0.1-1-0.2-1.5-0.2h-5.7
		v13h6c0.6,0,1.1-0.1,1.6-0.2c0.5-0.1,0.9-0.4,1.3-0.7c0.4-0.3,0.7-0.7,0.9-1.2c0.2-0.5,0.3-1.1,0.3-1.8c0-0.4-0.1-0.8-0.2-1.2
		C224,107,223.8,106.7,223.5,106.4"/>
	<path class="st2" d="M233.1,108h-3.2l1.6-3.4L233.1,108L233.1,108z M231.3,99.4l-6.6,13h2.9l1-2h5.8l1,2h2.9l-6.6-13H231.3
		L231.3,99.4z"/>
	<polygon class="st2" points="248.1,107 240,99.5 239.9,99.4 239.5,99.4 239.5,112.4 242.2,112.4 242.2,105 250.3,112.4 
		250.8,112.4 250.8,99.4 248.1,99.4 248.1,107 	"/>
	<polygon class="st2" points="264.3,99.4 260.9,99.4 256.1,105.6 256.1,99.4 253.4,99.4 253.4,112.4 256.1,112.4 256.1,106.8 
		261.2,112.4 264.8,112.4 258.9,106.1 264.3,99.4 	"/>
	<polygon class="st2" points="266,112.4 275.6,112.4 275.6,110 268.7,110 268.7,107.2 274.8,107.2 274.8,104.8 268.7,104.8 
		268.7,101.9 275.6,101.9 275.6,99.4 266,99.4 266,112.4 	"/>
	<g>
		<defs>
			<rect id="SVGID_1_" x="200.9" y="14.4" width="101.4" height="127.8"/>
		</defs>
		<clipPath id="SVGID_2_">
			<use xlink:href="#SVGID_1_"  style="overflow:visible;"/>
		</clipPath>
		<path class="st4" d="M284.9,105.5c-0.2,0.2-0.4,0.3-0.6,0.4c-0.2,0.1-0.4,0.1-0.6,0.1h-3.2v-4.1h3.2c0.4,0,0.7,0.1,1,0.2
			c0.2,0.2,0.4,0.3,0.5,0.5c0.1,0.2,0.2,0.4,0.3,0.7c0,0.2,0.1,0.5,0.1,0.6c0,0.3-0.1,0.6-0.2,0.9
			C285.2,105.1,285.1,105.3,284.9,105.5 M280.5,108.4h2.2c0.5,0.7,1,1.3,1.4,2c0.5,0.7,1,1.3,1.5,2l0,0.1h3.2l-0.2-0.2
			c-1-1.4-2-2.8-3.1-4.1c0.7-0.3,1.4-0.8,1.8-1.5c0.5-0.7,0.7-1.6,0.7-2.6c0-0.7-0.1-1.3-0.3-1.8c-0.2-0.6-0.5-1-0.9-1.4
			c-0.4-0.4-0.9-0.7-1.4-0.9c-0.6-0.2-1.2-0.3-1.8-0.3h-5.9v13h2.7V108.4L280.5,108.4z"/>
		<path class="st4" d="M212.4,84.2c-0.4-0.4-0.9-0.8-1.4-1.1c-0.5-0.3-1-0.5-1.6-0.7c-0.6-0.2-1.2-0.2-1.8-0.2
			c-0.9,0-1.8,0.2-2.6,0.5c-0.8,0.4-1.5,0.8-2.1,1.4c-0.6,0.6-1.1,1.3-1.4,2.1c-0.4,0.8-0.5,1.7-0.5,2.6c0,0.9,0.2,1.8,0.5,2.6
			c0.4,0.8,0.8,1.5,1.4,2.1c0.6,0.6,1.3,1.1,2.1,1.4c0.8,0.4,1.7,0.5,2.6,0.5c0.6,0,1.2-0.1,1.8-0.2c0.6-0.2,1.1-0.4,1.6-0.7
			c0.5-0.3,1-0.7,1.4-1.1c0.4-0.4,0.8-0.9,1-1.4l0.1-0.1l-2.5-1l-0.1,0.1c-0.2,0.3-0.4,0.5-0.6,0.8c-0.2,0.2-0.5,0.5-0.8,0.6
			c-0.3,0.2-0.6,0.3-0.9,0.4c-0.3,0.1-0.7,0.2-1,0.2c-0.6,0-1.1-0.1-1.6-0.3c-0.5-0.2-0.9-0.5-1.3-0.9c-0.4-0.4-0.6-0.8-0.9-1.3
			c-0.2-0.5-0.3-1-0.3-1.6c0-0.5,0.1-1.1,0.3-1.6c0.2-0.5,0.5-1,0.9-1.3c0.4-0.4,0.8-0.7,1.3-0.9c0.5-0.2,1-0.3,1.6-0.3
			c0.3,0,0.7,0.1,1,0.2c0.3,0.1,0.6,0.2,0.9,0.4c0.3,0.2,0.6,0.4,0.8,0.6c0.2,0.2,0.5,0.5,0.6,0.8l0.1,0.1l2.5-1l-0.1-0.1
			C213.2,85.1,212.8,84.7,212.4,84.2"/>
	</g>
	<path class="st2" d="M225,88.9c0,0.6-0.1,1.1-0.3,1.6c-0.2,0.5-0.5,1-0.9,1.3c-0.4,0.4-0.8,0.7-1.3,0.9c-0.5,0.2-1,0.3-1.6,0.3
		c-0.6,0-1.1-0.1-1.6-0.3c-0.5-0.2-0.9-0.5-1.3-0.9c-0.4-0.4-0.7-0.8-0.9-1.3c-0.2-0.5-0.3-1-0.3-1.6c0-0.5,0.1-1.1,0.3-1.6
		c0.2-0.5,0.5-1,0.9-1.3c0.4-0.4,0.8-0.7,1.3-0.9c0.5-0.2,1-0.3,1.6-0.3c0.6,0,1.1,0.1,1.6,0.3c0.5,0.2,0.9,0.5,1.3,0.9
		c0.4,0.4,0.7,0.8,0.9,1.3C224.9,87.8,225,88.4,225,88.9 M225.7,84.2c-0.6-0.6-1.3-1.1-2.1-1.4c-0.8-0.4-1.7-0.5-2.6-0.5
		c-0.9,0-1.8,0.2-2.6,0.5c-0.8,0.4-1.5,0.8-2.1,1.4c-0.6,0.6-1.1,1.3-1.4,2.1c-0.4,0.8-0.5,1.7-0.5,2.6c0,0.9,0.2,1.8,0.5,2.6
		c0.4,0.8,0.8,1.5,1.4,2.1c0.6,0.6,1.3,1.1,2.1,1.4c0.8,0.4,1.7,0.5,2.6,0.5c0.9,0,1.8-0.2,2.6-0.5c0.8-0.4,1.5-0.8,2.1-1.4
		c0.6-0.6,1.1-1.3,1.4-2.1c0.4-0.8,0.5-1.7,0.5-2.6c0-0.9-0.2-1.8-0.5-2.6C226.8,85.5,226.4,84.8,225.7,84.2"/>
	<g>
		<defs>
			<rect id="SVGID_3_" x="200.9" y="14.4" width="101.4" height="127.8"/>
		</defs>
		<clipPath id="SVGID_4_">
			<use xlink:href="#SVGID_3_"  style="overflow:visible;"/>
		</clipPath>
		<path class="st5" d="M249.2,88.9c0,0.9-0.1,1.6-0.4,2.1c-0.2,0.5-0.5,0.9-0.9,1.2c-0.4,0.3-0.8,0.5-1.2,0.6
			c-0.5,0.1-0.9,0.2-1.3,0.2H243v-8.1h2.5c0.4,0,0.9,0.1,1.3,0.2c0.4,0.1,0.9,0.3,1.2,0.6c0.4,0.3,0.7,0.7,0.9,1.2
			C249.1,87.4,249.2,88.1,249.2,88.9 M250,84.1c-1.2-1.1-2.7-1.6-4.6-1.6h-5.1v13h5.1c0.9,0,1.8-0.1,2.5-0.4c0.8-0.3,1.5-0.7,2-1.2
			c0.6-0.6,1.1-1.3,1.4-2.1c0.3-0.8,0.5-1.7,0.5-2.8c0-1-0.2-1.9-0.5-2.8C251.1,85.4,250.6,84.6,250,84.1"/>
		<path class="st5" d="M209.9,142.2l0.6-1.2h3.7l0.6,1.2h1.6l-4-7.9h-0.2l-4,7.9H209.9L209.9,142.2z M212.3,137.3l1.1,2.4h-2.3
			L212.3,137.3L212.3,137.3z M224.4,142.2v-7.9h-1.5v4.8l-5.2-4.8h-0.2v7.9h1.5v-4.7l5.2,4.7H224.4L224.4,142.2z M229.5,142.2
			c2.6,0,4-1.5,4-3.9c0-2.4-1.4-3.9-4-3.9h-3.1v7.9H229.5L229.5,142.2z M227.9,135.7h1.6c1.1,0,2.4,0.4,2.4,2.6
			c0,2.2-1.3,2.6-2.4,2.6h-1.6V135.7L227.9,135.7z M246.5,134.3l-1.6,4.3l-2-4.3h-0.1l-2,4.3l-1.5-4.3h-1.6l2.9,7.9h0.1l2.2-4.6
			l2.1,4.6h0.2l2.9-7.9H246.5L246.5,134.3z M249.3,142.2l0.6-1.2h3.7l0.6,1.2h1.6l-4-7.9h-0.2l-4,7.9H249.3L249.3,142.2z
			 M251.7,137.3l1.1,2.4h-2.3L251.7,137.3L251.7,137.3z M258.5,140.8v-6.5H257v7.9h5.7v-1.3H258.5L258.5,140.8z M263.6,141.1
			c0.8,0.6,1.7,1.2,3.4,1.2c1.8,0,3-0.8,3-2.4c0-2.1-2-2.3-3-2.5c-0.8-0.2-1.8-0.4-1.8-1.1c0-0.6,0.7-0.8,1.3-0.8
			c0.9,0,1.6,0.3,2.3,0.8l0.8-1.1c-0.8-0.6-1.6-1-2.9-1s-3,0.5-3,2.3c0,1.9,2.1,2.2,3,2.4c0.9,0.2,1.8,0.4,1.8,1.1
			c0,0.5-0.4,0.9-1.5,0.9c-0.9,0-2.1-0.5-2.6-0.9L263.6,141.1L263.6,141.1z M276.9,134.3h-6v1.3h2.3v6.5h1.5v-6.5h2.3V134.3
			L276.9,134.3z M281.6,142.3c2.5,0,4.1-1.8,4.1-4.1c0-2.3-1.6-4.1-4.1-4.1c-2.5,0-4.1,1.8-4.1,4.1
			C277.5,140.5,279.2,142.3,281.6,142.3L281.6,142.3z M281.6,135.6c1.4,0,2.6,1.3,2.6,2.7c0,1.4-1.2,2.7-2.6,2.7
			c-1.4,0-2.6-1.3-2.6-2.7C279,136.8,280.2,135.6,281.6,135.6L281.6,135.6z M294.1,142.2v-7.9h-1.5v4.8l-5.2-4.8h-0.2v7.9h1.5v-4.7
			l5.2,4.7H294.1L294.1,142.2z"/>
	</g>
	<path class="st2" d="M210.6,123.8v3.4h-3.9v-3.4h-1.5v7.9h1.5v-3.1h3.9v3.1h1.5v-7.9H210.6L210.6,123.8z M217.7,131.8
		c2.5,0,4.1-1.8,4.1-4.1c0-2.3-1.6-4.1-4.1-4.1c-2.5,0-4.1,1.8-4.1,4.1C213.7,130,215.3,131.8,217.7,131.8L217.7,131.8z
		 M217.7,125.1c1.4,0,2.6,1.3,2.6,2.7c0,1.4-1.2,2.7-2.6,2.7c-1.4,0-2.6-1.3-2.6-2.7C215.2,126.3,216.3,125.1,217.7,125.1
		L217.7,125.1z M231.1,123.8l-1.6,4.3l-2-4.3h-0.1l-2,4.3l-1.5-4.3h-1.6l2.9,7.9h0.1l2.2-4.6l2.1,4.6h0.2l2.9-7.9H231.1L231.1,123.8
		z M233.8,131.7l0.6-1.2h3.7l0.6,1.2h1.6l-4-7.9h-0.2l-4,7.9H233.8L233.8,131.7z M236.3,126.8l1.1,2.4h-2.3L236.3,126.8L236.3,126.8
		z M244.5,129.2l1.8,2.5h1.8l-2-2.6c1-0.3,1.6-1.3,1.6-2.5c0-1.6-1.1-2.7-2.7-2.7h-3.6v7.9h1.5v-2.5H244.5L244.5,129.2z M243,125.2
		h1.7c1.1,0,1.6,0.6,1.6,1.4c0,0.7-0.3,1.4-1.6,1.4H243V125.2L243,125.2z M252.6,131.7c2.6,0,4-1.5,4-3.9c0-2.4-1.4-3.9-4-3.9h-3.1
		v7.9H252.6L252.6,131.7z M251,125.2h1.6c1.1,0,2.4,0.4,2.4,2.6c0,2.2-1.3,2.6-2.4,2.6H251V125.2L251,125.2z M261.5,123.8v7.9h1.5
		v-2.3h1.8c2,0,3-1.1,3-2.7c0-1.6-1.1-2.8-3-2.8H261.5L261.5,123.8z M263,128v-2.9h1.8c0.9,0,1.5,0.7,1.5,1.5c0,0.8-0.5,1.4-1.4,1.4
		H263L263,128z M274.8,125.2v-1.3h-5.8v7.9h5.8v-1.3h-4.3v-1.9h3.8v-1.3h-3.8v-2H274.8L274.8,125.2z M279.5,129.2l1.8,2.5h1.8
		l-2-2.6c1-0.3,1.6-1.3,1.6-2.5c0-1.6-1.1-2.7-2.7-2.7h-3.6v7.9h1.5v-2.5H279.5L279.5,129.2z M278,125.2h1.7c1.1,0,1.6,0.6,1.6,1.4
		c0,0.7-0.3,1.4-1.6,1.4H278V125.2L278,125.2z M287.5,129.2l1.8,2.5h1.8l-2-2.6c1-0.3,1.6-1.3,1.6-2.5c0-1.6-1.1-2.7-2.7-2.7h-3.6
		v7.9h1.5v-2.5H287.5L287.5,129.2z M286,125.2h1.7c1.1,0,1.6,0.6,1.6,1.4c0,0.7-0.3,1.4-1.6,1.4H286V125.2L286,125.2z M297,123.8
		l-2,3.3l-2-3.3h-1.8l3,4.9v3h1.5v-3l3-4.9H297L297,123.8z"/>
</g>
</svg>
