<?xml version="1.0" encoding="utf-8"?>
<!-- Generator: Adobe Illustrator 25.0.0, SVG Export Plug-In . SVG Version: 6.00 Build 0)  -->
<svg version="1.1" id="Layer_1" xmlns="http://www.w3.org/2000/svg" xmlns:xlink="http://www.w3.org/1999/xlink" x="0px" y="0px"
	 viewBox="0 0 544.2 255.4" style="enable-background:new 0 0 544.2 255.4;" xml:space="preserve">
<style type="text/css">
	.st0{fill:#231F20;}
</style>
<path class="st0" d="M41.5,132.6c27.2-25.1,48.3-44.3,48.3-60c0-10.4-5.8-15.3-14.2-15.3c-7.6,0-13.4,5.5-18.9,10.9L40,51.6
	c12-12.7,22.9-18.5,40-18.5c23.3,0,39.6,14.9,39.6,37.8c0,18.5-17.4,38.9-33.1,54.9c6.4-0.8,12.8-1.3,19.3-1.5H125v26.2H41.5V132.6z
	"/>
<path class="st0" d="M167.3,104.6c11.4-6.2,19.1-17.3,19.1-34.2c0-29.4-21.8-38.1-47.2-38.1H125v24.7h12c12.4,0,18.9,3.3,18.9,13.4
	s-6.5,15.6-18.9,15.6h-12v24.7h12.7l20.3,39.6h34.9L167.3,104.6z"/>
<path class="st0" d="M243.8,57.4c23.2,0,45,17.4,45,47.6s-21.8,47.6-45,47.6s-45-17.4-45-47.6S220.6,57.4,243.8,57.4z M243.8,127.5
	c9.4,0,13.1-8.7,13.1-22.5s-3.6-22.5-13.1-22.5s-13.1,8.7-13.1,22.5S234.4,127.5,243.8,127.5z"/>
<path class="st0" d="M349.2,57.4c10.9,0,20.3,4,26.5,10.2l-14.2,19.3c-4-3.3-7.3-4.4-10.5-4.4c-11.6,0-18.5,8.7-18.5,22.5
	s7.6,22.5,17.4,22.5c5.8,0,10.5-2.9,14.5-5.8l12.4,19.6c-9.1,8-21.1,11.3-30.5,11.3c-25.8,0-45.8-17.4-45.8-47.6
	S323.4,57.4,349.2,57.4z"/>
<path class="st0" d="M390.9,24h30.5v67.2h0.7l25.1-31.6H481l-32.3,37.8l34.1,53h-33.8l-18.2-32.3l-9.4,10.5v21.8h-30.5V24z"/>
<path class="st0" d="M47.1,218.5c4,3.1,7.8,5,12.4,5c4.8,0,7.1-2.3,7.1-5.4c0-3.7-4.8-5.4-9.5-7.2c-5.9-2.2-12.5-5.5-12.5-13
	c0-7.8,6.3-13.4,16.3-13.4c5.4,0.1,10.6,2,14.8,5.4l-4.8,6.4c-3.1-2.3-6.3-3.8-9.8-3.8c-4.5,0-6.5,2.1-6.5,4.9
	c0,3.5,4.5,4.9,9.3,6.6c6.1,2.3,12.8,5.2,12.8,13.5c0,7.6-6.1,13.8-17.3,13.8c-6.2-0.2-12.1-2.3-16.9-6.2L47.1,218.5z"/>
<path class="st0" d="M118.1,184.7c11.2,0,21.3,8.5,21.3,23.4c0,14.8-10.1,23.3-21.3,23.3c-11.1,0-21.2-8.5-21.2-23.3
	C96.9,193.2,107,184.7,118.1,184.7z M118.1,222.9c6.5,0,10.5-5.9,10.5-14.8c0-9-4-14.9-10.5-14.9c-6.5,0-10.4,5.9-10.4,14.9
	C107.7,217,111.6,222.9,118.1,222.9z"/>
<path class="st0" d="M186.2,174.5c-1.5-0.7-3.2-1.1-4.9-1.1c-3.6,0-5.6,2.4-5.6,7.5v4.8h8.7v8.3h-8.7v36.3h-10.4V194h-6v-7.8l6-0.5
	v-4.6c0-9.3,4.3-16,14.8-16c2.8,0,5.6,0.5,8.2,1.5L186.2,174.5z"/>
<path class="st0" d="M207.8,194h-6.4v-7.8l6.9-0.5l1.3-12.2h8.7v12.2h11.4v8.3h-11.4v21.3c0,5.3,2,7.8,6.3,7.8c1.6,0,3.2-0.4,4.6-1
	l1.8,7.7c-2.9,1-6,1.6-9.1,1.6c-10.4,0-14.2-6.5-14.2-16.2V194z"/>
<path class="st0" d="M248.7,185.7h10.5l5.4,23.2c0.9,4.3,1.5,8.4,2.4,12.8h0.4c0.8-4.4,1.7-8.6,2.8-12.8l5.8-23.2h9.5l5.9,23.2
	c1.1,4.3,2,8.4,3,12.8h0.4c0.8-4.4,1.5-8.5,2.4-12.8l5.4-23.2h9.8l-11.4,44.6h-12.4l-5.2-20.8c-1-4.2-1.7-8.3-2.7-13h-0.4
	c-0.8,4.7-1.6,8.9-2.6,13.1l-5.1,20.7h-12L248.7,185.7z"/>
<path class="st0" d="M358.6,201.8c-0.1-4.7-2.1-8.7-8.1-8.7c-4.5,0-8.6,2-12.5,4.4l-3.8-7c4.9-3.1,11.2-5.8,18.3-5.8
	c11.2,0,16.6,6.8,16.6,19.3v26.4h-8.5l-0.8-4.9h-0.3c-4,3.4-8.5,6-13.8,6c-7.8,0-13.3-5.3-13.3-13.1
	C332.4,208.8,340.3,203.8,358.6,201.8z M348.9,223.3c3.6,0,6.4-1.8,9.7-4.9v-10c-12.1,1.5-16.1,4.7-16.1,9.2
	C342.5,221.5,345.2,223.3,348.9,223.3z"/>
<path class="st0" d="M395.8,185.7h8.6l0.7,7.9h0.4c3.2-5.8,7.9-9,12.6-9c1.7-0.1,3.5,0.2,5.1,0.9l-1.8,9.1c-1.5-0.5-3.1-0.7-4.6-0.7
	c-3.5,0-7.8,2.5-10.5,9.2v27.2h-10.4V185.7z"/>
<path class="st0" d="M460.5,184.7c12.1,0,18.4,8.7,18.4,21.2c0,1.6-0.1,3.3-0.5,4.9h-28.3c0.9,8.1,6,12.6,13.2,12.6
	c3.7,0,7.3-1.2,10.4-3.3l3.5,6.5c-4.5,3-9.8,4.7-15.3,4.8c-12.4,0-22-8.6-22-23.3C440,193.6,450.1,184.7,460.5,184.7z M469.9,204.1
	c0-7.1-3-11.4-9.1-11.4c-5.3,0-9.8,3.9-10.7,11.4H469.9z"/>
<path class="st0" d="M485.3,49.2H481v-1.4h10.2v1.4h-4.3v10.9h-1.5L485.3,49.2z M493.3,47.8h2.1l2.1,5l1.2,3.5h0.2l1.2-3.5l2-5h2.1
	v12.3h-1.5v-6.5l0.2-3.9h-0.2l-3.3,8.5H498l-3.3-8.5h-0.2l0.2,3.9v6.5h-1.5V47.8z"/>
</svg>
